<!-- Generator: Adobe Illustrator 21.1.0, SVG Export Plug-In  -->
<svg version="1.1"
	 xmlns="http://www.w3.org/2000/svg" xmlns:xlink="http://www.w3.org/1999/xlink" xmlns:a="http://ns.adobe.com/AdobeSVGViewerExtensions/3.0/"
	 x="0px" y="0px" width="1143.682px" height="271.892px" viewBox="0 0 1143.682 271.892"
	 style="enable-background:new 0 0 1143.682 271.892;" xml:space="preserve">
<style type="text/css">
	.st0{fill:#FFFFFF;}
</style>
<defs>
</defs>
<g>
	<path class="st0" d="M641.301,99.945c5.633-5.648,18.121-13.702,33.945-15.009c15.838-1.271,31.32,19.133,32.444,23.385
		c1.16,4.247,3.599,5.213,3.599,5.213l84.333,37.301l-83.353-29.456c-10.278-4.898-12.004-2.381-13.391-0.993
		c-1.397,1.401-8.176,7.06-15.837,4.379c-7.239-2.509-9.36-14.76-12.719-20.553c-3.32-5.801-7.054-5.507-12.661-4.046
		c-12.203,3.127-20.773,26.214-20.773,26.214c-15.968,3.945-41.84,22.957-47.721,36.813c-5.901,13.855-25.983,30.327-42.634,32.753
		c-16.642,2.449-37.462,12.628-39.447,13.418c-3.301,1.323-11.368,3.406-9.511,6.79c2.342,4.328,8.838-2.529,11.575-3.437
		c3.059-0.994,4.626-0.584,5.479,0.264c4.478,4.483-10.055,12.396-10.055,12.396c0.014,0-19.81,11.444-23.024,20.944
		c-3.243,9.492,5.938,12.506,12.712,14.38c8.172,2.27,16.478-6.932,22.781-18.827c3.176-6.04,3.686-12.322,3.686-12.322
		s2.046-6.288,3.914,2.774c2.226,10.716-7.143,25.905-9.166,28.725c-2.453,3.418,0.413,4.955,0.413,4.955
		c5.731,3.954,12.169-15.549,15.1-23.06c2.957-7.503,4.419-15.674,4.419-15.674c5.732-3.908,6.359,2.787,6.359,2.787
		c0.822,14.186-6.955,25.66-8.514,30.849c-2.29,7.651,5.047,3.345,5.047,3.345s13.664-12.384,8.527-29.11
		c-5.118-16.74,4.696-26.868,8.682-30.835c3.997-4.007,14.524-8.64,31.999-5.038c17.457,3.607,31.974-3.08,31.974-3.08
		c30.536-10.74,43.943-34.064,42.467-31.276c-1.483,2.758-10.734,12.744-10.734,12.744c-39.627,39.536-60.781,25.527-77.759,26.324
		c-16.971,0.804-22.295,22.837-21.726,26.078c2.227,12.999-1.085,21.389-1.085,21.389c-8.837,26.092-20.651,20.548-23.104,18.09
		c-2.445-2.441,1.651-8.152,1.651-8.152c10.849-21.125,9.005-34.268,7.698-26.922c-1.32,7.342-6.961,22.034-11.548,30.342
		c-4.581,8.329-11.265,8.407-14.764,4.874c-3.518-3.497,0.013-7.176,5.725-15.001c5.714-7.824,6.212-22.677,6.212-22.677
		s-2.84,18.554-14.887,29.187c-12.08,10.692-26.92-1.799-26.92-1.799c-10.112-12.098,2.38-22.129,8.689-26.936
		c7.064-5.391,22.862-12.731,22.852-16.776c0.01-3.406-2.11-1.819-7.662,2.112c-5.565,3.904-7.259,1.698-8.339,0.65
		c-1.054-1.071-2.601-2.779,0.355-5.729c2.931-2.926,42.442-19.373,42.442-19.373c23.983-6.844,35.265-23.456,35.265-23.456
		c21.248-33.766,38.087-44.526,38.087-44.526c4.387-2.28,3.578-2.93,3.578-2.93c-31.642-1.01-49.298-18.198-67.692-34.5
		c-22.509-19.932-51.06-17.854-83.201-18.699c-32.167-0.837-27.905-15.527-27.905-15.527c3.113-11.408,13.549-9.128,13.549-9.128
		c52.535,8.536,81.776,18.7,110.276,47.244c28.486,28.536,59.581,25.147,59.581,25.147
		C621.598,114.605,635.651,105.57,641.301,99.945 M479.997,79.129c-13.464,0.834-17.508-4.296-21.66-5.277
		c-4.161-0.976-1.476,4.021-1.476,4.021c8.061,17.654,28.254,22.068,31.183,26.108c2.944,4.047,9.297,6.759,11.258,6.759
		c1.956,0,1.956,1.456,1.956,1.456c20.907,22.669,43.811,25.868,46.1,25.871c2.33,0,4.426,0,5.28,4.532
		c0.854,4.522,2.814,4.292,4.037,5.51c1.216,1.228,2.925,0.004,3.779,3.69c0.873,3.654,2.815,9.418,4.774,9.418
		c1.954,0,2.795,1.954,2.795,3.422c0,1.473,0,3.202,2.349,4.412c2.309,1.23,3.436,0.832,6.108-4.627
		c2.698-5.48,8.695-12.365,8.695-12.365c-7.071-0.976-4.795-1.95-11.367-1.108c-3.281,0.409-3.643,1.252-5.876-1.011
		c-2.25-2.231,0.511-14.779-1.085-18.837c-1.585-4.036-10.965-4.977-23.622-2.707c-12.861,2.329-29.902-13.237-36.799-20.351
		c-5.739-5.933-34.451-17.238-39.42-22.202c-2.006-2.013,0.743-4.64,2.089-3.313c1.352,1.367,12.485,3.323,26.934,0.029
		c14.433-3.273,35.493,0.029,35.493,0.029C520.394,77.334,493.46,78.287,479.997,79.129 M561.922,31.081c0,0,2.64-2.589,1.467-3.774
		c-1.142-1.155-1.933-1.207-2.553-3.91c-0.615-2.7-4.284-2.7-4.284,0.955c0,3.693-4.561,28.895,0.804,40.906
		c0,0,0.619,3.532-2.091,7.715c-2.705,4.144-3.916,8.061-3.916,8.061s7.952,6.864,9.22,9.252
		c1.302,2.391,16.214,13.654,22.451,16.118c6.25,2.459,11.995,3.689,13.598,5.26c1.58,1.606,2.803,0.75,2.803-0.834
		c0-1.592,6.412-40.896-7.415-57.05c0,0,5.868,9.299,5.854,21.193c0,11.841-1.499,28.019-1.734,29.488
		c-0.264,1.463-1.285,2.131-4.34,0.29c-3.059-1.842-8.636-2.509-15.353-7.897c-6.736-5.394-9.536-9.686-16.304-13.656
		c-2.866-1.713-3.098-3.445-1.487-6.502c1.59-3.06,3.783-9.549,2.03-16.823C556.643,43.222,561.922,31.081,561.922,31.081
		 M602.208,110.501c0,0-2.645,3.117-0.286,3.891c2.382,0.767,5.728,1.246,5.728,1.246s1.403,0.75,1.403-2.109
		c0-2.872,4.385-73.918-27.394-105.778c0,0-10.779-11.271-20.327-6.631c-9.549,4.644-7.182,9.385-4.419,13.218
		c24.746,34.47,28.532,19.421,38.321,36.149C607.197,70.963,606.207,97.445,602.208,110.501 M686.595,99.356
		c-2.144-0.012-3.883,1.864-3.87,4.154c-0.013,2.293,1.726,4.144,3.842,4.144c2.135,0.009,3.875-1.841,3.875-4.137
		C690.442,101.231,688.716,99.356,686.595,99.356"/>
	<g>
		<path class="st0" d="M0,168.294h46.807c10.195,0,17.829,2.424,22.906,7.273c5.076,4.848,7.615,11.748,7.615,20.699
			c0,9.2-2.766,16.39-8.298,21.57c-5.532,5.181-13.977,7.77-25.331,7.77H28.283v33.815H0V168.294z M28.283,207.144h6.9
			c5.429,0,9.24-0.942,11.438-2.828c2.196-1.885,3.294-4.299,3.294-7.242c0-2.859-0.954-5.283-2.859-7.272
			c-1.906-1.99-5.492-2.984-10.753-2.984h-8.019V207.144z"/>
		<path class="st0" d="M92.432,259.42v-91.126h46.931c8.702,0,15.353,0.746,19.954,2.238c4.6,1.492,8.308,4.258,11.126,8.298
			c2.818,4.041,4.227,8.962,4.227,14.763c0,5.056-1.078,9.417-3.234,13.085c-2.156,3.667-5.121,6.641-8.893,8.92
			c-2.405,1.451-5.702,2.652-9.89,3.605c3.354,1.121,5.797,2.241,7.33,3.36c1.035,0.746,2.536,2.343,4.504,4.791
			c1.966,2.448,3.282,4.335,3.944,5.662l13.636,26.405h-31.817l-15.051-27.848c-1.906-3.605-3.605-5.946-5.097-7.024
			c-2.031-1.408-4.331-2.114-6.9-2.114h-2.486v36.985H92.432z M120.715,205.217h11.873c1.284,0,3.77-0.414,7.459-1.243
			c1.865-0.373,3.388-1.326,4.569-2.859c1.181-1.533,1.772-3.295,1.772-5.284c0-2.942-0.933-5.2-2.798-6.776
			c-1.864-1.574-5.367-2.362-10.505-2.362h-12.37V205.217z"/>
		<path class="st0" d="M247.104,244.377h-31.969l-4.441,15.043h-28.751l34.251-91.126h30.715l34.242,91.126h-29.487L247.104,244.377
			z M241.263,224.673l-10.058-32.759l-9.954,32.759H241.263z"/>
		<path class="st0" d="M290.473,168.294h41.834c8.245,0,14.908,1.118,19.984,3.357c5.076,2.238,9.271,5.449,12.587,9.634
			c3.315,4.186,5.719,9.055,7.211,14.608c1.492,5.554,2.238,11.438,2.238,17.654c0,9.738-1.109,17.291-3.326,22.657
			c-2.217,5.368-5.294,9.863-9.231,13.489c-3.937,3.627-8.164,6.04-12.68,7.242c-6.176,1.658-11.77,2.486-16.783,2.486h-41.834
			V168.294z M318.632,188.931v49.79h6.9c5.884,0,10.07-0.653,12.556-1.958c2.487-1.305,4.434-3.584,5.843-6.837
			c1.408-3.253,2.113-8.526,2.113-15.82c0-9.655-1.575-16.265-4.724-19.829c-3.15-3.563-8.372-5.346-15.665-5.346H318.632z"/>
		<path class="st0" d="M385.579,213.919c0-14.877,4.143-26.459,12.431-34.747c8.288-8.288,19.829-12.432,34.623-12.432
			c15.167,0,26.854,4.072,35.059,12.214c8.205,8.143,12.307,19.549,12.307,34.219c0,10.651-1.793,19.384-5.377,26.2
			c-3.584,6.817-8.764,12.121-15.539,15.913c-6.776,3.792-15.22,5.687-25.331,5.687c-10.278,0-18.783-1.637-25.517-4.911
			c-6.735-3.273-12.194-8.454-16.379-15.54C387.671,233.438,385.579,224.57,385.579,213.919z M413.737,214.044
			c0,9.199,1.709,15.81,5.128,19.829c3.419,4.02,8.07,6.03,13.955,6.03c6.05,0,10.732-1.968,14.048-5.906
			c3.315-3.936,4.973-11.002,4.973-21.197c0-8.578-1.731-14.845-5.19-18.803c-3.46-3.957-8.154-5.937-14.079-5.937
			c-5.678,0-10.236,2.011-13.675,6.03C415.456,198.11,413.737,204.761,413.737,214.044z"/>
		<path class="st0" d="M665.174,168.294h26.294l34.312,50.415v-50.415h26.542v91.126H725.78l-34.125-50.035v50.035h-26.48V168.294z"
			/>
		<path class="st0" d="M767.49,213.919c0-14.877,4.144-26.459,12.432-34.747c8.288-8.288,19.829-12.432,34.624-12.432
			c15.166,0,26.853,4.072,35.058,12.214s12.307,19.549,12.307,34.219c0,10.651-1.793,19.384-5.377,26.2
			c-3.585,6.817-8.764,12.121-15.54,15.913c-6.775,3.792-15.22,5.687-25.329,5.687c-10.278,0-18.783-1.637-25.517-4.911
			c-6.735-3.273-12.195-8.454-16.379-15.54C769.582,233.438,767.49,224.57,767.49,213.919z M795.648,214.044
			c0,9.199,1.71,15.81,5.129,19.829c3.419,4.02,8.07,6.03,13.955,6.03c6.05,0,10.733-1.968,14.048-5.906
			c3.315-3.936,4.972-11.002,4.972-21.197c0-8.578-1.73-14.845-5.191-18.803c-3.46-3.957-8.153-5.937-14.079-5.937
			c-5.677,0-10.235,2.011-13.675,6.03C797.368,198.11,795.648,204.761,795.648,214.044z"/>
		<path class="st0" d="M877.45,259.42v-91.126h46.931c8.702,0,15.354,0.746,19.953,2.238c4.6,1.492,8.308,4.258,11.127,8.298
			c2.817,4.041,4.227,8.962,4.227,14.763c0,5.056-1.079,9.417-3.235,13.085c-2.156,3.667-5.121,6.641-8.893,8.92
			c-2.405,1.451-5.701,2.652-9.889,3.605c3.354,1.121,5.797,2.241,7.329,3.36c1.036,0.746,2.536,2.343,4.504,4.791
			c1.968,2.448,3.282,4.335,3.945,5.662l13.637,26.405h-31.817l-15.052-27.848c-1.906-3.605-3.605-5.946-5.097-7.024
			c-2.031-1.408-4.33-2.114-6.9-2.114h-2.486v36.985H877.45z M905.733,205.217h11.873c1.283,0,3.77-0.414,7.458-1.243
			c1.864-0.373,3.388-1.326,4.569-2.859c1.181-1.533,1.772-3.295,1.772-5.284c0-2.942-0.933-5.2-2.797-6.776
			c-1.866-1.574-5.368-2.362-10.505-2.362h-12.37V205.217z"/>
		<path class="st0" d="M968.577,168.294h85.595v22.502h-28.719v68.624h-28.159v-68.624h-28.717V168.294z"/>
		<path class="st0" d="M1066.853,168.294h75.462v19.456h-47.242v14.483h43.823v18.586h-43.823v17.965h48.609v20.637h-76.829V168.294
			z"/>
	</g>
</g>
</svg>