<svg xmlns="http://www.w3.org/2000/svg"><symbol id="icon-search" viewBox="0 0 18 18"><path fill="currentColor" d="M12.8 11.4c.9-1.2 1.4-2.7 1.4-4.3C14.2 3.2 11 0 7.1 0S0 3.2 0 7.1c0 3.9 3.2 7.1 7.1 7.1 1.6 0 3.1-.5 4.3-1.4l5.2 5.2 1.4-1.4-5.2-5.2zM2 7.1C2 4.3 4.3 2 7.1 2s5.1 2.3 5.1 5.1-2.3 5.1-5.1 5.1S2 9.9 2 7.1z"/></symbol><symbol id="icon-view-default" viewBox="0 0 18 18"><g fill="currentColor"><path d="M8 11H0V0h8v11zM18 5h-8V0h8v5zM8 18H0v-5h8v5zM18 18h-8V7h8v11z"/></g></symbol><symbol id="icon-view-alt" viewBox="0 0 18 18"><g fill="currentColor"><path d="M8 8H0V0h8v8zM18 8h-8V0h8v8zM8 18H0v-8h8v8zM18 18h-8v-8h8v8z"/></g></symbol><symbol id="icon-view-full" viewBox="0 0 18 18"><g fill="currentColor"><path d="M18 8H0V0h18v8zM18 18H0v-8h18v8z"/></g></symbol><symbol id="icon-facebook" viewBox="0 0 24 24"><path fill="white" d="M12 2c5.514 0 10 4.486 10 10s-4.486 10-10 10-10-4.486-10-10 4.486-10 10-10zm0-2c-6.627 0-12 5.373-12 12s5.373 12 12 12 12-5.373 12-12-5.373-12-12-12zm-2 10h-2v2h2v6h3v-6h1.82l.18-2h-2v-.833c0-.478.096-.667.558-.667h1.442v-2.5h-2.404c-1.798 0-2.596.792-2.596 2.308v1.692z"/></symbol><symbol id="icon-twitter" viewBox="0 0 17.9 15"><path fill="currentColor" d="M17.9 1.8c-.3.2-1.2.5-2 .6.5-.3 1.3-1.3 1.5-2.1-.5.3-1.7.8-2.3.8C14.4.5 13.5 0 12.4 0c-2 0-3.7 1.7-3.7 3.8 0 .3 0 .6.1.8-2.8-.1-6-1.5-7.8-4-1.1 2-.2 4.2 1.1 5-.4 0-1.2-.1-1.6-.4 0 1.3.6 3.1 2.9 3.7-.5.4-1.3.3-1.6.3.1 1.1 1.6 2.6 3.3 2.6-.6.7-2.6 2-5.1 1.6 1.7 1 3.7 1.6 5.8 1.6 6 0 10.6-5 10.3-11.1v-.1c.6-.4 1.3-1.1 1.8-2z"/></symbol><symbol id="icon-instagram" viewBox="0 0 25 25"><path fill="white" d="M12 2.163c3.204 0 3.584.012 4.85.07 3.252.148 4.771 1.691 4.919 4.919.058 1.265.069 1.645.069 4.849 0 3.205-.012 3.584-.069 4.849-.149 3.225-1.664 4.771-4.919 4.919-1.266.058-1.644.07-4.85.07-3.204 0-3.584-.012-4.849-.07-3.26-.149-4.771-1.699-4.919-4.92-.058-1.265-.07-1.644-.07-4.849 0-3.204.013-3.583.07-4.849.149-3.227 1.664-4.771 4.919-4.919 1.266-.057 1.645-.069 4.849-.069zm0-2.163c-3.259 0-3.667.014-4.947.072-4.358.2-6.78 2.618-6.98 6.98-.059 1.281-.073 1.689-.073 4.948 0 3.259.014 3.668.072 4.948.2 4.358 2.618 6.78 6.98 6.98 1.281.058 1.689.072 4.948.072 3.259 0 3.668-.014 4.948-.072 4.354-.2 6.782-2.618 6.979-6.98.059-1.28.073-1.689.073-4.948 0-3.259-.014-3.667-.072-4.947-.196-4.354-2.617-6.78-6.979-6.98-1.281-.059-1.69-.073-4.949-.073zm0 5.838c-3.403 0-6.162 2.759-6.162 6.162s2.759 6.163 6.162 6.163 6.162-2.759 6.162-6.163c0-3.403-2.759-6.162-6.162-6.162zm0 10.162c-2.209 0-4-1.79-4-4 0-2.209 1.791-4 4-4s4 1.791 4 4c0 2.21-1.791 4-4 4zm6.406-11.845c-.796 0-1.441.645-1.441 1.44s.645 1.44 1.441 1.44c.795 0 1.439-.645 1.439-1.44s-.644-1.44-1.439-1.44z"/></symbol><symbol id="icon-tumblr" viewBox="0 0 11 19"><path fill="currentColor" d="M8.6 15.9c-1.6 0-2.3-1.3-2.3-2.2V7.8h4.1v-3h-4V.1S4.7 0 3.5 0C3.5 4.1 0 4.9 0 4.9v2.8h2.3v7C2.3 17.1 4.4 19 7 19s4-1.1 4-1.1v-3.1c0 .1-.8 1.1-2.4 1.1z"/></symbol><symbol id="icon-menu" viewBox="0 0 274.5 224.5"><g fill="currentColor"><path d="M274 53.8H.5V.5H274v53.3zM274 138.9H.5V85.6H274v53.3zM274 224H.5v-53.3H274V224z"/></g></symbol><symbol id="bar" viewBox="0 0 274.5 54.3"><path fill="white" d="M274 53.8H.5V.5H274v53.3z"/></symbol><symbol id="arrow" viewBox="0 0 38 14"><path fill="currentColor" d="M31 0l-1.4 1.4L34.2 6H0v2h34.2l-4.6 4.6L31 14l7-7-7-7z"/></symbol><symbol id="refresh" viewBox="0 0 19 16"><path fill="currentColor" d="M9.4 6.2l5.9 4.4L19 4.4l-1.7-1L15.7 6c-.9-3.5-4-6-7.7-6-4.4 0-8 3.6-8 8s3.6 8 8 8c2.1 0 4.1-.8 5.6-2.3l-1.4-1.4C11.1 13.3 9.6 14 8 14c-3.3 0-6-2.7-6-6s2.7-6 6-6c3 0 5.4 2.2 5.9 5l-3.3-2.4-1.2 1.6z"/></symbol></svg>